<?xml version="1.0" encoding="utf-8"?>
<!-- Generator: Adobe Illustrator 16.0.0, SVG Export Plug-In . SVG Version: 6.00 Build 0)  -->
<!DOCTYPE svg PUBLIC "-//W3C//DTD SVG 1.1//EN" "http://www.w3.org/Graphics/SVG/1.1/DTD/svg11.dtd">
<svg version="1.1" id="Layer_1" xmlns="http://www.w3.org/2000/svg" xmlns:xlink="http://www.w3.org/1999/xlink" x="0px" y="0px"
	 width="1920px" height="1080px" viewBox="0 0 1920 1080" enable-background="new 0 0 1920 1080" xml:space="preserve">
<path fill="#FFFFFF" d="M1146.679,337.5C1116.094,149.133,1043.953,16.875,960,16.875S803.906,149.133,773.32,337.5H1146.679z
	 M757.5,540c0,46.828,2.531,91.758,6.961,135h390.867c4.43-43.242,6.961-88.172,6.961-135c0-46.829-2.531-91.758-6.961-135H764.461
	C760.031,448.242,757.5,493.172,757.5,540z M1442.414,337.5c-60.328-143.227-182.461-253.969-333.281-298.688
	c51.469,71.297,86.906,178.664,105.469,298.688H1442.414z M810.656,38.813C660.047,83.531,537.703,194.274,477.586,337.5h227.813
	C723.75,217.477,759.187,110.11,810.656,38.813z M1464.984,405h-241.945c4.43,44.297,6.961,89.648,6.961,135
	s-2.531,90.703-6.961,135h241.734c11.602-43.242,18.141-88.172,18.141-135C1482.914,493.171,1476.375,448.242,1464.984,405z
	 M690,540c0-45.352,2.531-90.703,6.961-135H455.015c-11.391,43.242-18.141,88.172-18.141,135s6.75,91.758,18.141,135H696.75
	C692.531,630.703,690,585.352,690,540z M773.32,742.5c30.586,188.366,102.727,320.625,186.68,320.625
	s156.094-132.259,186.68-320.625H773.32z M1109.344,1041.188c150.609-44.72,272.953-155.461,333.281-298.688h-227.813
	C1196.25,862.523,1160.812,969.89,1109.344,1041.188z M477.586,742.5c60.328,143.226,182.461,253.968,333.281,298.688
	c-51.469-71.297-86.906-178.664-105.469-298.688H477.586z"/>
</svg>
