<?xml version="1.0" encoding="utf-8"?>
<!-- Generator: Adobe Illustrator 16.0.0, SVG Export Plug-In . SVG Version: 6.00 Build 0)  -->
<!DOCTYPE svg PUBLIC "-//W3C//DTD SVG 1.1//EN" "http://www.w3.org/Graphics/SVG/1.1/DTD/svg11.dtd">
<svg version="1.1" id="Layer_1" xmlns="http://www.w3.org/2000/svg" xmlns:xlink="http://www.w3.org/1999/xlink" x="0px" y="0px"
	 width="1920px" height="1080px" viewBox="0 0 1920 1080" enable-background="new 0 0 1920 1080" xml:space="preserve">
<path fill="#FFFFFF" d="M1230,675c-47.688,0-91.519,16.493-126.119,44.075L887.699,583.961c6.402-28.959,6.402-58.966,0-87.925
	l216.182-135.114C1138.481,388.506,1182.311,405,1230,405c111.838,0,202.5-90.663,202.5-202.5S1341.838,0,1230,0
	c-111.837,0-202.5,90.663-202.5,202.5c0,15.099,1.667,29.806,4.802,43.961L816.12,381.575C781.519,353.993,737.689,337.5,690,337.5
	c-111.836,0-202.5,90.662-202.5,202.5c0,111.836,90.664,202.5,202.5,202.5c47.689,0,91.52-16.494,126.12-44.076l216.182,135.114
	c-3.196,14.436-4.806,29.177-4.802,43.962c0,111.837,90.663,202.5,202.5,202.5c111.838,0,202.5-90.663,202.5-202.5
	C1432.5,765.662,1341.838,675,1230,675z"/>
</svg>
